<svg width="336" height="334" viewBox="0 0 336 334" fill="none" xmlns="http://www.w3.org/2000/svg">
<g filter="url(#filter0_d_1_35)">
<path d="M83.1303 77.8036C84.9724 75.9539 87.1596 75.4826 89.7383 75.7381C120.213 78.7777 150.699 81.7726 181.183 84.7344C183.223 84.9297 184.95 85.6942 186.607 86.7988C212.055 103.718 237.511 120.632 262.959 137.558C265.954 139.555 266.924 141.981 265.966 144.79C264.971 147.7 262.689 149.021 259.022 148.749C257.446 148.632 255.862 148.52 254.3 148.28C253.047 148.087 252.506 148.579 252.096 149.721C244.479 171.212 236.83 192.687 229.168 214.166C228.842 215.088 228.803 216.017 228.789 216.967C228.571 227.727 228.189 238.487 228.201 249.246C228.208 254.35 223.78 257.48 219.06 255.521C212.81 252.917 206.397 250.657 199.917 248.698C194.994 247.208 193.465 242.085 196.879 237.929C203.667 229.664 210.107 221.118 216.709 212.701C217.46 211.74 218.034 210.721 218.445 209.572C225.612 189.403 232.793 169.236 239.973 149.069C240.72 146.972 240.708 146.957 238.409 146.733C215.049 144.436 191.685 142.12 168.32 139.868C165.721 139.617 163.48 138.802 161.298 137.35C136.165 120.603 111.005 103.92 85.8288 87.267C83.6337 85.8131 82.1003 84.0786 81.8564 81.3849L83.1303 77.8036Z" fill="#7C54F7"/>
<path d="M109.254 141.139C111.419 135.05 113.584 128.967 115.755 122.879C116.509 120.777 116.536 120.766 118.469 122.046C131.753 130.868 145.039 139.682 158.308 148.528C159.934 149.61 161.673 150.211 163.609 150.401C179.481 151.94 195.348 153.523 211.219 155.022C212.974 155.185 213.344 155.634 212.726 157.338C208.419 169.249 204.138 181.17 199.989 193.138C198.671 196.932 196.109 199.115 192.417 200.179C186.811 201.799 181.111 201.444 175.454 200.641C161.322 198.64 147.864 194.305 134.752 188.754C127.39 185.639 120.266 182.097 113.667 177.563C110.154 175.147 106.904 172.433 104.443 168.894C102.203 165.675 101.562 162.3 103.026 158.483C105.224 152.746 107.182 146.923 109.241 141.137L109.254 141.139Z" fill="#AF9CFF"/>
</g>
<defs>
<filter id="filter0_d_1_35" x="77.8545" y="75.6739" width="192.469" height="188.441" filterUnits="userSpaceOnUse" color-interpolation-filters="sRGB">
<feFlood flood-opacity="0" result="BackgroundImageFix"/>
<feColorMatrix in="SourceAlpha" type="matrix" values="0 0 0 0 0 0 0 0 0 0 0 0 0 0 0 0 0 0 127 0" result="hardAlpha"/>
<feOffset dy="4"/>
<feGaussianBlur stdDeviation="2"/>
<feComposite in2="hardAlpha" operator="out"/>
<feColorMatrix type="matrix" values="0 0 0 0 0 0 0 0 0 0 0 0 0 0 0 0 0 0 0.25 0"/>
<feBlend mode="normal" in2="BackgroundImageFix" result="effect1_dropShadow_1_35"/>
<feBlend mode="normal" in="SourceGraphic" in2="effect1_dropShadow_1_35" result="shape"/>
</filter>
</defs>
</svg>
