<svg width="56" height="57" viewBox="0 0 56 57" fill="none" xmlns="http://www.w3.org/2000/svg">
<path d="M48.3867 1.38342L50.7293 0.420409C50.7293 0.420409 51.0419 2.05727 52.5933 2.2844L51.311 4.54064L48.3867 1.38342Z" fill="white"/>
<path d="M52.932 0.559527C52.9068 0.90735 52.8624 1.25434 52.8155 1.59964C52.7845 1.82342 52.761 1.8427 52.5523 1.76727C51.9069 1.53259 51.4535 1.09677 51.1979 0.458952C51.1216 0.268697 51.1375 0.246068 51.3412 0.208352C51.8525 0.113644 52.3595 0.0298308 52.88 0.000496327C52.9412 -0.00285618 52.9546 0.00971573 52.9538 0.070899C52.9521 0.234334 52.9437 0.396931 52.932 0.559527Z" fill="white"/>
<path d="M18.0072 32.0129C17.7549 32.1637 17.5051 32.3188 17.2596 32.478L12.7865 35.2589C12.7764 35.2631 12.7672 35.2682 12.758 35.2732V35.2774L11.7606 35.8976L10.0332 39.7387L8.64865 37.7448C3.74225 40.5115 0.766062 42.1551 0.369628 42.3403L0.380524 56.9639H7.27496V41.1451L10.4967 44.5664L12.6943 40.2894V48.9716L12.6574 57H19.4471L19.5074 31.2183V31.0817L18.008 32.0137L18.0072 32.0129Z" fill="white"/>
<path d="M36.3186 40.0254L38.3242 18.3212C36.0546 19.8567 33.9593 21.2639 31.8262 22.6292L29.5608 36.7207L29.5817 24.2409C26.8251 26.1896 25.1682 27.3705 22.7795 28.9353L23.0946 56.995H29.4359L29.5465 40.7948L29.4359 40.4704L29.451 40.3539L29.6069 40.6867L35.8794 56.9614H43.1569L36.3186 40.0246V40.0254Z" fill="white"/>
<path d="M55.0373 17.9699H51.7251L51.7376 6.86131L44.8893 12.4969V12.6519V13.1783V17.9699H41.5309V23.7253H44.8893V56.9981H51.679L51.7184 23.7253H55.0373V17.9699Z" fill="white"/>
<path d="M1.77013 34.7963C1.17422 35.1198 0.72079 35.3579 0.422416 35.5121C0.162597 35.647 0 35.9152 0 36.2077V38.7296C0 39.3205 0.627758 39.6985 1.14991 39.4219C1.43655 39.2702 1.77683 39.0884 2.16907 38.8763" fill="white"/>
<path d="M17.0099 29.9948L14.6288 26.2014L15.4811 25.6667L17.4155 28.7477L18.9535 27.7821L19.4002 28.4945L17.0107 29.9948H17.0099Z" fill="white"/>
<path d="M21.5559 25.3238L19.6139 26.6212C19.9475 26.9908 20.3146 27.0562 20.6758 26.8156C21.0195 26.586 21.131 26.3253 21.0304 26.0194L21.7445 25.6875C22.021 26.3807 21.752 27.0076 21.0991 27.4442C20.2082 28.0393 19.2837 27.7787 18.7121 26.9221C18.1514 26.0831 18.2713 25.0958 19.1186 24.5292C19.9467 23.9761 20.8217 24.1957 21.4017 25.0631C21.4536 25.1402 21.5022 25.2199 21.5559 25.3246V25.3238ZM19.2963 26.1334L20.4906 25.3355C20.2048 24.976 19.8553 24.9357 19.5343 25.1503C19.2049 25.3707 19.1136 25.7169 19.2963 26.1334Z" fill="white"/>
<path d="M25.1406 23.6216L25.5739 24.2351C25.4716 24.3533 25.3652 24.4413 25.2244 24.541C24.8104 24.8327 24.5698 24.826 24.2991 24.5326C24.3595 24.9408 24.1441 25.3464 23.6856 25.67C23.0805 26.0974 22.4854 25.9775 22.1359 25.4822C21.7227 24.8972 22.1041 24.303 22.8667 23.7641C23.0495 23.635 23.2288 23.5294 23.4065 23.4414L23.3294 23.3316C23.1106 23.0223 22.8391 22.8765 22.4594 23.1447C22.1527 23.3617 22.0898 23.6124 22.2625 23.9292L21.4796 24.3558C21.0815 23.6962 21.3279 23.0248 22.0236 22.5337C23.1039 21.771 23.699 22.2906 24.0728 22.8195L24.667 23.661C24.7643 23.7993 24.8506 23.8437 24.9973 23.7397C25.045 23.7062 25.0937 23.6677 25.1414 23.6207L25.1406 23.6216ZM23.9471 24.2074L23.7342 23.9065C23.5817 23.9769 23.4442 24.0566 23.3001 24.158C22.8978 24.4421 22.7813 24.6717 22.9288 24.8804C23.0738 25.0858 23.285 25.0925 23.5356 24.9156C23.7971 24.7304 23.9488 24.4681 23.9471 24.2074Z" fill="white"/>
<path d="M25.014 21.33C24.8464 20.7818 25.0015 20.2656 25.5714 19.9831L26.1614 20.7852C25.6049 21.0408 25.3183 21.5806 25.7776 22.205L26.6819 23.4345L25.9435 23.9776L23.9345 21.247L24.5866 20.7668L25.0132 21.3291L25.014 21.33Z" fill="white"/>
<path d="M29.1569 18.8502L30.4753 20.5751L29.7419 21.1358L28.5803 19.6163C28.2978 19.2467 28.0321 19.1771 27.7254 19.4109C27.375 19.6791 27.3273 20.1099 27.7204 20.6245L28.7119 21.922L27.9785 22.4827L25.9175 19.7864L26.5688 19.2886L26.982 19.8183C26.8361 19.3489 26.956 18.9106 27.4077 18.5653C28.0891 18.0439 28.6901 18.2401 29.1569 18.8502Z" fill="white"/>
<path d="M28.307 16.8151C28.1192 16.5771 28.1737 16.2226 28.4117 16.0357C28.6556 15.8438 29.0127 15.8739 29.1996 16.112C29.389 16.3525 29.3345 16.707 29.0915 16.899C28.8534 17.0867 28.4964 17.0565 28.307 16.8151ZM31.0468 20.1216L28.9473 17.4555L29.6723 16.8839L31.7718 19.55L31.0468 20.1207V20.1216Z" fill="white"/>
<path d="M33.4431 15.4213L34.8084 17.1084L34.091 17.6892L32.8883 16.2032C32.5958 15.842 32.3276 15.7791 32.0283 16.0222C31.6856 16.2996 31.6495 16.7321 32.0577 17.235L33.0852 18.5039L32.3678 19.0847L30.2322 16.4471L30.8692 15.9309L31.2975 16.4488C31.1383 15.9837 31.2464 15.542 31.6881 15.1841C32.3552 14.6443 32.9603 14.8228 33.4439 15.4204L33.4431 15.4213Z" fill="white"/>
<path d="M35.0698 12.4695L35.6867 11.9507L37.7032 14.3511C38.388 15.1657 38.2036 16.0499 37.3696 16.7498C36.8684 17.1705 36.3589 17.3516 35.778 17.308L35.7001 16.5411C36.141 16.5847 36.5743 16.4455 36.9112 16.1622C37.3361 15.8052 37.4685 15.3476 37.0562 14.8573L36.788 14.538C36.9221 14.9973 36.8022 15.4172 36.3773 15.7734C35.6758 16.3626 34.7782 16.2259 34.1068 15.4272C33.4397 14.6335 33.4623 13.7283 34.1638 13.1391C34.5938 12.7779 35.0212 12.7242 35.4478 12.9329L35.0673 12.4695H35.0698ZM36.068 13.7811C35.716 13.3621 35.2249 13.2967 34.8343 13.6252C34.4488 13.9488 34.4588 14.4047 34.8176 14.8313C35.183 15.2663 35.6372 15.3618 36.0219 15.0383C36.4125 14.7106 36.4268 14.2077 36.068 13.7803V13.7811Z" fill="white"/>
<path d="M15.3428 29.2234L12.9584 30.7932C13.3632 31.2475 13.8116 31.3305 14.2541 31.0388C14.6765 30.7605 14.8148 30.4429 14.6941 30.0682L15.57 29.6676C15.9027 30.5175 15.5691 31.2818 14.767 31.8099C13.6733 32.5298 12.546 32.2038 11.8537 31.1519C11.1748 30.1219 11.329 28.9158 12.37 28.2302C13.3866 27.5614 14.4544 27.8355 15.1559 28.9016C15.2188 28.9963 15.2775 29.0935 15.342 29.2226L15.3428 29.2234ZM12.5745 30.1948L14.0412 29.2293C13.6942 28.7867 13.2676 28.7356 12.8737 28.9946C12.4689 29.2611 12.3549 29.6844 12.5753 30.1948H12.5745Z" fill="white"/>
<path d="M51.311 4.5415C50.3966 3.43433 49.4713 2.32465 48.3867 1.38427C44.5582 4.746 40.8494 7.84205 37.3033 10.6791L35.648 11.9698L35.0303 12.4878L37.5472 15.4062L37.8749 16.1881L43.2364 11.358C45.8749 9.21742 48.5745 6.94525 51.3101 4.5415H51.311Z" fill="white"/>
<path d="M13.265 31.7865L12.0162 30.826L12.1126 29.0249L12.0464 28.4902C11.986 28.5329 11.9265 28.5765 11.8662 28.6192C11.7137 28.729 11.5611 28.8388 11.4086 28.9478C11.2041 29.0945 11.0004 29.2411 10.7959 29.3878C10.5805 29.5429 10.3659 29.6971 10.1505 29.8521C9.96532 29.9854 9.78009 30.1187 9.59487 30.2519C9.48004 30.3349 9.36438 30.4162 9.2504 30.5C9.0593 30.6391 8.84642 30.7523 8.64443 30.8746C8.44244 30.997 8.23291 31.1227 8.02673 31.2468C7.63784 31.4806 7.24727 31.7128 6.8567 31.9433C6.49715 32.1553 6.13675 32.3665 5.77552 32.5769C5.44614 32.768 5.11591 32.9582 4.78569 33.1476C4.48732 33.3178 4.18894 33.4879 3.88889 33.6564C3.62237 33.8064 3.35585 33.9556 3.08848 34.1031C2.85548 34.2322 2.62165 34.3613 2.38697 34.4887C2.36518 34.5004 2.16654 34.5926 2.16822 34.6077L2.56717 38.6877C4.23839 37.7825 7.52134 36.2613 11.1228 34.1509L11.127 34.1484C11.2946 34.0503 11.4631 33.9506 11.6315 33.85L14.7778 31.805L13.2642 31.7865H13.265Z" fill="white"/>
</svg>
