<svg width="56" height="57" viewBox="0 0 56 57" fill="none" xmlns="http://www.w3.org/2000/svg">
<path d="M48.3866 1.38342L50.7292 0.420409C50.7292 0.420409 51.0418 2.05727 52.5932 2.2844L51.3108 4.54064L48.3866 1.38342Z" fill="white"/>
<path d="M52.9323 0.559527C52.9072 0.90735 52.8628 1.25434 52.8158 1.59964C52.7848 1.82342 52.7614 1.8427 52.5527 1.76727C51.9073 1.53259 51.4539 1.09677 51.1982 0.458952C51.122 0.268697 51.1379 0.246068 51.3416 0.208352C51.8528 0.113644 52.3599 0.0298308 52.8804 0.000496327C52.9416 -0.00285618 52.955 0.00971573 52.9541 0.070899C52.9524 0.234334 52.9441 0.396931 52.9323 0.559527Z" fill="white"/>
<path d="M18.0067 32.0129C17.7544 32.1637 17.5047 32.3188 17.2591 32.478L12.786 35.2589C12.7759 35.2631 12.7667 35.2682 12.7575 35.2732V35.2774L11.7601 35.8976L10.0328 39.7387L8.64816 37.7448C3.74177 40.5115 0.765574 42.1551 0.36914 42.3403L0.380036 56.9639H7.27447V41.1451L10.4962 44.5664L12.6938 40.2894V48.9716L12.6569 57H19.4466L19.5069 31.2183V31.0817L18.0075 32.0137L18.0067 32.0129Z" fill="white"/>
<path d="M36.3184 40.0254L38.324 18.3212C36.0544 19.8567 33.959 21.2639 31.826 22.6292L29.5605 36.7207L29.5815 24.2409C26.8249 26.1896 25.1679 27.3705 22.7792 28.9353L23.0944 56.995H29.4357L29.5463 40.7948L29.4357 40.4704L29.4507 40.3539L29.6066 40.6867L35.8792 56.9614H43.1566L36.3184 40.0246V40.0254Z" fill="white"/>
<path d="M55.0376 17.9699H51.7253L51.7379 6.86131L44.8895 12.4969V12.6519V13.1783V17.9699H41.5312V23.7253H44.8895V56.9981H51.6792L51.7186 23.7253H55.0376V17.9699Z" fill="white"/>
<path d="M1.77013 34.7963C1.17422 35.1198 0.72079 35.3579 0.422416 35.5121C0.162597 35.647 0 35.9152 0 36.2077V38.7296C0 39.3205 0.627758 39.6985 1.14991 39.4219C1.43655 39.2702 1.77683 39.0884 2.16907 38.8763" fill="white"/>
<path d="M17.01 29.9948L14.6289 26.2014L15.4813 25.6667L17.4156 28.7477L18.9536 27.7821L19.4003 28.4945L17.0108 29.9948H17.01Z" fill="white"/>
<path d="M21.5561 25.3238L19.6142 26.6212C19.9478 26.9908 20.3149 27.0562 20.6761 26.8156C21.0197 26.586 21.1312 26.3253 21.0306 26.0194L21.7447 25.6875C22.0213 26.3807 21.7522 27.0076 21.0993 27.4442C20.2084 28.0393 19.284 27.7787 18.7124 26.9221C18.1517 26.0831 18.2715 25.0958 19.1189 24.5292C19.9469 23.9761 20.8219 24.1957 21.4019 25.0631C21.4539 25.1402 21.5025 25.2199 21.5561 25.3246V25.3238ZM19.2965 26.1334L20.4909 25.3355C20.2051 24.976 19.8556 24.9357 19.5346 25.1503C19.2052 25.3707 19.1138 25.7169 19.2965 26.1334Z" fill="white"/>
<path d="M25.1406 23.6216L25.5739 24.2351C25.4716 24.3533 25.3652 24.4413 25.2244 24.541C24.8104 24.8327 24.5698 24.826 24.2991 24.5326C24.3595 24.9408 24.1441 25.3464 23.6856 25.67C23.0805 26.0974 22.4854 25.9775 22.1359 25.4822C21.7227 24.8972 22.1041 24.303 22.8667 23.7641C23.0495 23.635 23.2288 23.5294 23.4065 23.4414L23.3294 23.3316C23.1106 23.0223 22.8391 22.8765 22.4594 23.1447C22.1527 23.3617 22.0898 23.6124 22.2625 23.9292L21.4796 24.3558C21.0815 23.6962 21.3279 23.0248 22.0236 22.5337C23.1039 21.771 23.699 22.2906 24.0728 22.8195L24.667 23.661C24.7643 23.7993 24.8506 23.8437 24.9973 23.7397C25.045 23.7062 25.0937 23.6677 25.1414 23.6207L25.1406 23.6216ZM23.9471 24.2074L23.7342 23.9065C23.5817 23.9769 23.4442 24.0566 23.3001 24.158C22.8978 24.4421 22.7813 24.6717 22.9288 24.8804C23.0738 25.0858 23.285 25.0925 23.5356 24.9156C23.7971 24.7304 23.9488 24.4681 23.9471 24.2074Z" fill="white"/>
<path d="M25.014 21.33C24.8464 20.7818 25.0015 20.2656 25.5714 19.9831L26.1614 20.7852C25.6049 21.0408 25.3183 21.5806 25.7776 22.205L26.6819 23.4345L25.9435 23.9776L23.9345 21.247L24.5866 20.7668L25.0132 21.3291L25.014 21.33Z" fill="white"/>
<path d="M29.1573 18.8502L30.4756 20.5751L29.7423 21.1358L28.5806 19.6163C28.2982 19.2467 28.0325 19.1771 27.7258 19.4109C27.3754 19.6791 27.3276 20.1099 27.7207 20.6245L28.7122 21.922L27.9789 22.4827L25.9179 19.7864L26.5691 19.2886L26.9823 19.8183C26.8365 19.3489 26.9564 18.9106 27.4081 18.5653C28.0895 18.0439 28.6904 18.2401 29.1573 18.8502Z" fill="white"/>
<path d="M28.3071 16.8151C28.1194 16.5771 28.1738 16.2226 28.4119 16.0357C28.6558 15.8438 29.0128 15.8739 29.1997 16.112C29.3891 16.3525 29.3346 16.707 29.0916 16.899C28.8536 17.0867 28.4965 17.0565 28.3071 16.8151ZM31.0469 20.1216L28.9474 17.4555L29.6724 16.8839L31.7719 19.55L31.0469 20.1207V20.1216Z" fill="white"/>
<path d="M33.4432 15.4213L34.8085 17.1084L34.0911 17.6892L32.8884 16.2032C32.5959 15.842 32.3277 15.7791 32.0285 16.0222C31.6857 16.2996 31.6496 16.7321 32.0578 17.235L33.0853 18.5039L32.3679 19.0847L30.2324 16.4471L30.8693 15.9309L31.2976 16.4488C31.1384 15.9837 31.2465 15.542 31.6882 15.1841C32.3553 14.6443 32.9605 14.8228 33.4441 15.4204L33.4432 15.4213Z" fill="white"/>
<path d="M35.0702 12.4695L35.6871 11.9507L37.7036 14.3511C38.3883 15.1657 38.204 16.0499 37.37 16.7498C36.8688 17.1705 36.3592 17.3516 35.7784 17.308L35.7005 16.5411C36.1413 16.5847 36.5746 16.4455 36.9116 16.1622C37.3365 15.8052 37.4689 15.3476 37.0566 14.8573L36.7884 14.538C36.9225 14.9973 36.8026 15.4172 36.3777 15.7734C35.6762 16.3626 34.7785 16.2259 34.1072 15.4272C33.44 14.6335 33.4627 13.7283 34.1642 13.1391C34.5941 12.7779 35.0216 12.7242 35.4482 12.9329L35.0677 12.4695H35.0702ZM36.0684 13.7811C35.7164 13.3621 35.2252 13.2967 34.8347 13.6252C34.4491 13.9488 34.4592 14.4047 34.8179 14.8313C35.1833 15.2663 35.6376 15.3618 36.0223 15.0383C36.4129 14.7106 36.4271 14.2077 36.0684 13.7803V13.7811Z" fill="white"/>
<path d="M15.3428 29.2234L12.9584 30.7932C13.3632 31.2475 13.8116 31.3305 14.2541 31.0388C14.6765 30.7605 14.8148 30.4429 14.6941 30.0682L15.57 29.6676C15.9027 30.5175 15.5691 31.2818 14.767 31.8099C13.6733 32.5298 12.546 32.2038 11.8537 31.1519C11.1748 30.1219 11.329 28.9158 12.37 28.2302C13.3866 27.5614 14.4544 27.8355 15.1559 28.9016C15.2188 28.9963 15.2775 29.0935 15.342 29.2226L15.3428 29.2234ZM12.5745 30.1948L14.0412 29.2293C13.6942 28.7867 13.2676 28.7356 12.8737 28.9946C12.4689 29.2611 12.3549 29.6844 12.5753 30.1948H12.5745Z" fill="white"/>
<path d="M51.3108 4.5415C50.3964 3.43433 49.4711 2.32465 48.3866 1.38427C44.558 4.746 40.8493 7.84205 37.3032 10.6791L35.6479 11.9698L35.0302 12.4878L37.5471 15.4062L37.8748 16.1881L43.2363 11.358C45.8747 9.21742 48.5743 6.94525 51.31 4.5415H51.3108Z" fill="white"/>
<path d="M13.2648 31.7865L12.016 30.826L12.1124 29.0249L12.0461 28.4902C11.9858 28.5329 11.9263 28.5765 11.8659 28.6192C11.7134 28.729 11.5609 28.8388 11.4083 28.9478C11.2038 29.0945 11.0002 29.2411 10.7957 29.3878C10.5803 29.5429 10.3657 29.6971 10.1503 29.8521C9.96508 29.9854 9.77985 30.1187 9.59462 30.2519C9.4798 30.3349 9.36414 30.4162 9.25015 30.5C9.05906 30.6391 8.84618 30.7523 8.64419 30.8746C8.4422 30.997 8.23267 31.1227 8.02649 31.2468C7.6376 31.4806 7.24703 31.7128 6.85646 31.9433C6.4969 32.1553 6.13651 32.3665 5.77528 32.5769C5.44589 32.768 5.11567 32.9582 4.78545 33.1476C4.48707 33.3178 4.1887 33.4879 3.88865 33.6564C3.62213 33.8064 3.3556 33.9556 3.08824 34.1031C2.85524 34.2322 2.6214 34.3613 2.38673 34.4887C2.36493 34.5004 2.1663 34.5926 2.16797 34.6077L2.56692 38.6877C4.23815 37.7825 7.5211 36.2613 11.1225 34.1509L11.1267 34.1484C11.2943 34.0503 11.4628 33.9506 11.6313 33.85L14.7776 31.805L13.2639 31.7865H13.2648Z" fill="white"/>
</svg>
