<svg width="29" height="55" viewBox="0 0 29 55" fill="none" xmlns="http://www.w3.org/2000/svg">
<path d="M28.2207 4.63721C28.4696 4.37482 28.6642 4.06616 28.7934 3.72886C28.9226 3.39155 28.9838 3.0322 28.9736 2.67134C28.9633 2.31047 28.8818 1.95514 28.7337 1.62565C28.5856 1.29616 28.3737 0.998949 28.1103 0.750994C27.8469 0.50304 27.537 0.309196 27.1983 0.180528C26.8597 0.0518612 26.4989 -0.0091091 26.1366 0.00109936C25.7743 0.0113078 25.4175 0.0924947 25.0867 0.240025C24.7559 0.387555 24.4575 0.598538 24.2086 0.86093L0.754244 25.5964C0.26988 26.1067 0 26.7823 0 27.4846C0 28.1868 0.26988 28.8624 0.754244 29.3727L24.2086 54.1109C24.4559 54.3791 24.7542 54.5956 25.0862 54.7479C25.4183 54.9002 25.7774 54.9853 26.1427 54.9983C26.508 55.0112 26.8723 54.9517 27.2143 54.8232C27.5563 54.6947 27.8693 54.4999 28.1351 54.2499C28.4009 53.9999 28.6142 53.6998 28.7625 53.3671C28.9109 53.0343 28.9914 52.6755 28.9993 52.3115C29.0073 51.9474 28.9426 51.5855 28.8089 51.2466C28.6752 50.9077 28.4753 50.5987 28.2207 50.3374L6.55437 27.4846L28.2207 4.63721Z" fill="white"/>
</svg>
