<svg width="105" height="133" viewBox="0 0 105 133" fill="none" xmlns="http://www.w3.org/2000/svg">
<path d="M52.5 0C38.5812 0.0163422 25.2372 5.52649 15.3951 15.3217C5.55298 25.117 0.0164763 38.3975 5.58546e-05 52.25C-0.0166147 63.5703 3.69882 74.5835 10.5764 83.6C10.5764 83.6 12.0082 85.4762 12.2421 85.747L52.5 133L92.777 85.7233C92.987 85.4715 94.4236 83.6 94.4236 83.6L94.4284 83.5858C101.303 74.5732 105.016 63.5651 105 52.25C104.984 38.3975 99.447 25.117 89.6049 15.3217C79.7628 5.52649 66.4188 0.0163422 52.5 0ZM52.5 71.25C48.7242 71.25 45.0332 70.1357 41.8937 68.0479C38.7542 65.9602 36.3073 62.9928 34.8623 59.521C33.4174 56.0492 33.0393 52.2289 33.7759 48.5433C34.5126 44.8576 36.3308 41.4722 39.0007 38.815C41.6706 36.1578 45.0723 34.3482 48.7756 33.6151C52.4788 32.882 56.3174 33.2582 59.8058 34.6963C63.2942 36.1344 66.2758 38.5696 68.3735 41.6942C70.4712 44.8187 71.5909 48.4922 71.5909 52.25C71.5846 57.2872 69.5712 62.1163 65.9923 65.6781C62.4135 69.2399 57.5613 71.2437 52.5 71.25Z" fill="white"/>
</svg>
