<svg width="138" height="138" viewBox="0 0 138 138" fill="none" xmlns="http://www.w3.org/2000/svg">
<g filter="url(#filter0_d_1_115)">
<path d="M28.3701 68.5687C28.3701 76.2388 30.5263 83.7241 34.5924 90.1621L35.5473 91.7022L31.4504 106.673L46.8214 102.637L48.3 103.531C54.5223 107.227 61.6687 109.199 68.9692 109.199H69C91.3634 109.199 110.061 90.9937 110.061 68.5995C110.061 57.7567 105.379 47.5607 97.7089 39.8906C90.008 32.1897 79.8429 27.9696 69 27.9696C46.6058 27.9696 28.4009 46.1746 28.3701 68.5687ZM84.6482 91.7946C80.767 92.3799 77.7482 92.0719 70.0165 88.7451C58.6808 83.8473 50.9799 72.8812 49.4089 70.6634C49.2857 70.4786 49.1933 70.3862 49.1625 70.3245C48.5464 69.5237 44.1723 63.7018 44.1723 57.6951C44.1723 52.0272 46.9446 49.1009 48.2384 47.7455C48.3308 47.6531 48.3924 47.5915 48.454 47.4991C49.5629 46.267 50.8875 45.9589 51.7192 45.9589C52.5201 45.9589 53.3518 45.9589 54.0603 45.9897H54.3067C55.0152 45.9897 55.9085 45.9897 56.8018 48.0844C57.1714 48.9777 57.7259 50.333 58.3112 51.7192C59.3277 54.1835 60.375 56.7402 60.5598 57.1406C60.8679 57.7567 61.0835 58.4652 60.6522 59.2661C59.6049 61.3607 58.5268 62.4696 57.7875 63.2705C56.8326 64.2562 56.4013 64.7183 57.079 65.9196C61.792 74.021 66.5049 76.8241 73.6821 80.4281C74.9143 81.0442 75.6228 80.9518 76.3312 80.1201C77.0397 79.3192 79.3808 76.5469 80.1817 75.3455C80.9826 74.1134 81.8143 74.329 82.9232 74.7295C84.0321 75.1299 90.0388 78.0871 91.271 78.7031C91.5174 78.8263 91.733 78.9187 91.9179 79.0112C92.7803 79.4424 93.3656 79.7196 93.612 80.1201C93.8893 80.7054 93.8893 83.1696 92.8728 86.0036C91.8562 88.8683 86.9893 91.4558 84.6482 91.7946ZM138 19.7143C138 8.84062 129.159 0 118.286 0H19.7143C8.84062 0 0 8.84062 0 19.7143V118.286C0 129.159 8.84062 138 19.7143 138H118.286C129.159 138 138 129.159 138 118.286V19.7143ZM45.6201 111.478L19.7143 118.286L26.6451 92.9652C22.3634 85.5723 20.1147 77.1629 20.1147 68.5379C20.1455 41.6156 42.0469 19.7143 68.9692 19.7143C82.0299 19.7143 94.2897 24.7969 103.531 34.0379C112.741 43.279 118.286 55.5388 118.286 68.5995C118.286 95.5219 95.8915 117.423 68.9692 117.423C60.7754 117.423 52.7357 115.359 45.6201 111.478Z" fill="white"/>
</g>
<defs>
<filter id="filter0_d_1_115" x="-4" y="0" width="146" height="146" filterUnits="userSpaceOnUse" color-interpolation-filters="sRGB">
<feFlood flood-opacity="0" result="BackgroundImageFix"/>
<feColorMatrix in="SourceAlpha" type="matrix" values="0 0 0 0 0 0 0 0 0 0 0 0 0 0 0 0 0 0 127 0" result="hardAlpha"/>
<feOffset dy="4"/>
<feGaussianBlur stdDeviation="2"/>
<feComposite in2="hardAlpha" operator="out"/>
<feColorMatrix type="matrix" values="0 0 0 0 0 0 0 0 0 0 0 0 0 0 0 0 0 0 0.25 0"/>
<feBlend mode="normal" in2="BackgroundImageFix" result="effect1_dropShadow_1_115"/>
<feBlend mode="normal" in="SourceGraphic" in2="effect1_dropShadow_1_115" result="shape"/>
</filter>
</defs>
</svg>
