<svg width="138" height="138" viewBox="0 0 138 138" fill="none" xmlns="http://www.w3.org/2000/svg">
<g filter="url(#filter0_d_1_113)">
<path d="M76.0933 0.00848944C81.1282 -0.0108314 86.1631 0.0397722 91.1966 0.160285L92.5351 0.208583C94.0807 0.263781 95.6055 0.332779 97.4477 0.415576C104.789 0.760564 109.798 1.91973 114.193 3.62397C118.747 5.37651 122.583 7.75003 126.419 11.5863C129.927 15.0335 132.642 19.2033 134.375 23.8058C136.079 28.2009 137.238 33.2171 137.583 40.5584C137.666 42.3937 137.735 43.9255 137.79 45.471L137.831 46.8096C137.954 51.8409 138.007 56.8736 137.99 61.9063L137.997 67.0535V76.0922C138.014 81.1272 137.961 86.1622 137.838 91.1958L137.797 92.5343C137.742 94.0799 137.673 95.6047 137.59 97.447C137.245 104.788 136.072 109.798 134.375 114.193C132.647 118.8 129.932 122.973 126.419 126.419C122.969 129.926 118.797 132.641 114.193 134.375C109.798 136.079 104.789 137.238 97.4477 137.583C95.6055 137.666 94.0807 137.735 92.5351 137.79L91.1966 137.831C86.1631 137.954 81.1282 138.007 76.0933 137.99L70.9461 137.997H61.9145C56.8796 138.014 51.8446 137.961 46.8112 137.838L45.4726 137.797C43.8347 137.737 42.1972 137.668 40.5601 137.59C33.2189 137.245 28.2097 136.072 23.8078 134.375C19.2035 132.645 15.033 129.93 11.5885 126.419C8.07688 122.971 5.35965 118.799 3.6263 114.193C1.92208 109.798 0.762942 104.788 0.417959 97.447C0.341117 95.8098 0.27212 94.1722 0.21097 92.5343L0.176473 91.1958C0.0492682 86.1623 -0.00823505 81.1273 0.0039811 76.0922V61.9063C-0.0152756 56.8736 0.0353272 51.8409 0.155774 46.8096L0.204071 45.471C0.259268 43.9255 0.328265 42.3937 0.41106 40.5584C0.756043 33.2102 1.91518 28.2078 3.61939 23.8058C5.35378 19.201 8.07632 15.0323 11.5954 11.5932C15.0376 8.0795 19.2054 5.35976 23.8078 3.62397C28.2097 1.91973 33.212 0.760564 40.5601 0.415576L45.4726 0.208583L46.8112 0.174085C51.8423 0.0469417 56.8749 -0.0105625 61.9076 0.00159017L76.0933 0.00848944ZM69.0004 34.5073C64.4295 34.4427 59.8912 35.2872 55.6495 36.9917C51.4077 38.6962 47.547 41.2268 44.2917 44.4365C41.0365 47.6461 38.4516 51.4706 36.6872 55.688C34.9229 59.9053 34.0143 64.4312 34.0143 69.0027C34.0143 73.5742 34.9229 78.1001 36.6872 82.3174C38.4516 86.5347 41.0365 90.3593 44.2917 93.5689C47.547 96.7785 51.4077 99.3091 55.6495 101.014C59.8912 102.718 64.4295 103.563 69.0004 103.498C78.1499 103.498 86.9247 99.8634 93.3944 93.3936C99.864 86.9238 103.499 78.1489 103.499 68.9992C103.499 59.8496 99.864 51.0747 93.3944 44.6049C86.9247 38.1351 78.1499 34.5073 69.0004 34.5073ZM69.0004 48.3068C71.75 48.2562 74.4821 48.7539 77.0371 49.771C79.5921 50.7881 81.9189 52.3042 83.8814 54.2306C85.844 56.157 87.403 58.4552 88.4674 60.991C89.5318 63.5267 90.0802 66.2491 90.0807 68.9992C90.0812 71.7492 89.5336 74.4718 88.4701 77.0079C87.4065 79.544 85.8483 81.8427 83.8864 83.7698C81.9245 85.6969 79.5982 87.2137 77.0435 88.2317C74.4888 89.2496 71.7569 89.7483 69.0073 89.6985C63.5176 89.6985 58.2528 87.5177 54.371 83.6359C50.4892 79.754 48.3084 74.489 48.3084 68.9992C48.3084 63.5094 50.4892 58.2445 54.371 54.3626C58.2528 50.4808 63.5176 48.2999 69.0073 48.2999L69.0004 48.3068ZM105.224 24.1577C102.998 24.2468 100.893 25.1937 99.3493 26.8001C97.8059 28.4065 96.9439 30.5478 96.9439 32.7755C96.9439 35.0032 97.8059 37.1445 99.3493 38.7509C100.893 40.3573 102.998 41.3042 105.224 41.3933C107.511 41.3933 109.705 40.4846 111.322 38.8672C112.939 37.2497 113.848 35.056 113.848 32.7686C113.848 30.4812 112.939 28.2874 111.322 26.67C109.705 25.0525 107.511 24.1439 105.224 24.1439V24.1577Z" fill="white"/>
</g>
<defs>
<filter id="filter0_d_1_113" x="-4" y="0" width="146" height="146" filterUnits="userSpaceOnUse" color-interpolation-filters="sRGB">
<feFlood flood-opacity="0" result="BackgroundImageFix"/>
<feColorMatrix in="SourceAlpha" type="matrix" values="0 0 0 0 0 0 0 0 0 0 0 0 0 0 0 0 0 0 127 0" result="hardAlpha"/>
<feOffset dy="4"/>
<feGaussianBlur stdDeviation="2"/>
<feComposite in2="hardAlpha" operator="out"/>
<feColorMatrix type="matrix" values="0 0 0 0 0 0 0 0 0 0 0 0 0 0 0 0 0 0 0.25 0"/>
<feBlend mode="normal" in2="BackgroundImageFix" result="effect1_dropShadow_1_113"/>
<feBlend mode="normal" in="SourceGraphic" in2="effect1_dropShadow_1_113" result="shape"/>
</filter>
</defs>
</svg>
