<svg width="56" height="57" viewBox="0 0 56 57" fill="none" xmlns="http://www.w3.org/2000/svg">
<path d="M48.3869 1.38342L50.7294 0.420409C50.7294 0.420409 51.042 2.05727 52.5934 2.2844L51.3111 4.54064L48.3869 1.38342Z" fill="white"/>
<path d="M52.9318 0.559527C52.9067 0.90735 52.8623 1.25434 52.8153 1.59964C52.7843 1.82342 52.7609 1.8427 52.5522 1.76727C51.9068 1.53259 51.4534 1.09677 51.1978 0.458952C51.1215 0.268697 51.1374 0.246068 51.3411 0.208352C51.8523 0.113644 52.3594 0.0298308 52.8799 0.000496327C52.9411 -0.00285618 52.9545 0.00971573 52.9536 0.070899C52.952 0.234334 52.9436 0.396931 52.9318 0.559527Z" fill="white"/>
<path d="M18.0072 32.0129C17.7549 32.1637 17.5051 32.3188 17.2596 32.478L12.7865 35.2589C12.7764 35.2631 12.7672 35.2682 12.758 35.2732V35.2774L11.7606 35.8976L10.0332 39.7387L8.64865 37.7448C3.74225 40.5115 0.766062 42.1551 0.369628 42.3403L0.380524 56.9639H7.27496V41.1451L10.4967 44.5664L12.6943 40.2894V48.9716L12.6574 57H19.4471L19.5074 31.2183V31.0817L18.008 32.0137L18.0072 32.0129Z" fill="white"/>
<path d="M36.3186 40.0254L38.3242 18.3212C36.0546 19.8567 33.9593 21.2639 31.8262 22.6292L29.5608 36.7207L29.5817 24.2409C26.8251 26.1896 25.1682 27.3705 22.7795 28.9353L23.0946 56.995H29.4359L29.5465 40.7948L29.4359 40.4704L29.451 40.3539L29.6069 40.6867L35.8794 56.9614H43.1569L36.3186 40.0246V40.0254Z" fill="white"/>
<path d="M55.0373 17.9699H51.7251L51.7376 6.86131L44.8893 12.4969V12.6519V13.1783V17.9699H41.5309V23.7253H44.8893V56.9981H51.679L51.7184 23.7253H55.0373V17.9699Z" fill="white"/>
<path d="M1.77013 34.7963C1.17422 35.1198 0.72079 35.3579 0.422416 35.5121C0.162597 35.647 0 35.9152 0 36.2077V38.7296C0 39.3205 0.627758 39.6985 1.14991 39.4219C1.43655 39.2702 1.77683 39.0884 2.16907 38.8763" fill="white"/>
<path d="M17.0098 29.9948L14.6286 26.2014L15.481 25.6667L17.4154 28.7477L18.9534 27.7821L19.4001 28.4945L17.0106 29.9948H17.0098Z" fill="white"/>
<path d="M21.5556 25.3238L19.6137 26.6212C19.9473 26.9908 20.3144 27.0562 20.6756 26.8156C21.0192 26.586 21.1307 26.3253 21.0301 26.0194L21.7442 25.6875C22.0208 26.3807 21.7518 27.0076 21.0989 27.4442C20.2079 28.0393 19.2835 27.7787 18.7119 26.9221C18.1512 26.0831 18.271 25.0958 19.1184 24.5292C19.9464 23.9761 20.8214 24.1957 21.4014 25.0631C21.4534 25.1402 21.502 25.2199 21.5556 25.3246V25.3238ZM19.296 26.1334L20.4904 25.3355C20.2046 24.976 19.8551 24.9357 19.5341 25.1503C19.2047 25.3707 19.1133 25.7169 19.296 26.1334Z" fill="white"/>
<path d="M25.1403 23.6216L25.5737 24.2351C25.4714 24.3533 25.365 24.4413 25.2242 24.541C24.8101 24.8327 24.5696 24.826 24.2989 24.5326C24.3592 24.9408 24.1438 25.3464 23.6854 25.67C23.0802 26.0974 22.4852 25.9775 22.1357 25.4822C21.7225 24.8972 22.1038 24.303 22.8665 23.7641C23.0492 23.635 23.2286 23.5294 23.4063 23.4414L23.3292 23.3316C23.1104 23.0223 22.8388 22.8765 22.4592 23.1447C22.1524 23.3617 22.0896 23.6124 22.2622 23.9292L21.4794 24.3558C21.0813 23.6962 21.3277 23.0248 22.0233 22.5337C23.1037 21.771 23.6988 22.2906 24.0726 22.8195L24.6668 23.661C24.764 23.7993 24.8504 23.8437 24.997 23.7397C25.0448 23.7062 25.0934 23.6677 25.1412 23.6207L25.1403 23.6216ZM23.9469 24.2074L23.734 23.9065C23.5814 23.9769 23.444 24.0566 23.2998 24.158C22.8975 24.4421 22.781 24.6717 22.9285 24.8804C23.0735 25.0858 23.2847 25.0925 23.5353 24.9156C23.7968 24.7304 23.9485 24.4681 23.9469 24.2074Z" fill="white"/>
<path d="M25.0138 21.33C24.8462 20.7818 25.0012 20.2656 25.5711 19.9831L26.1612 20.7852C25.6047 21.0408 25.318 21.5806 25.7773 22.205L26.6817 23.4345L25.9433 23.9776L23.9343 21.247L24.5863 20.7668L25.0129 21.3291L25.0138 21.33Z" fill="white"/>
<path d="M29.1568 18.8502L30.4752 20.5751L29.7418 21.1358L28.5802 19.6163C28.2977 19.2467 28.032 19.1771 27.7253 19.4109C27.3749 19.6791 27.3272 20.1099 27.7202 20.6245L28.7117 21.922L27.9784 22.4827L25.9174 19.7864L26.5686 19.2886L26.9818 19.8183C26.836 19.3489 26.9559 18.9106 27.4076 18.5653C28.089 18.0439 28.69 18.2401 29.1568 18.8502Z" fill="white"/>
<path d="M28.3068 16.8151C28.1191 16.5771 28.1736 16.2226 28.4116 16.0357C28.6555 15.8438 29.0126 15.8739 29.1995 16.112C29.3889 16.3525 29.3344 16.707 29.0913 16.899C28.8533 17.0867 28.4963 17.0565 28.3068 16.8151ZM31.0467 20.1216L28.9472 17.4555L29.6722 16.8839L31.7717 19.55L31.0467 20.1207V20.1216Z" fill="white"/>
<path d="M33.443 15.4213L34.8083 17.1084L34.0909 17.6892L32.8881 16.2032C32.5956 15.842 32.3274 15.7791 32.0282 16.0222C31.6854 16.2996 31.6494 16.7321 32.0576 17.235L33.0851 18.5039L32.3677 19.0847L30.2321 16.4471L30.8691 15.9309L31.2974 16.4488C31.1381 15.9837 31.2462 15.542 31.6879 15.1841C32.3551 14.6443 32.9602 14.8228 33.4438 15.4204L33.443 15.4213Z" fill="white"/>
<path d="M35.0697 12.4695L35.6866 11.9507L37.7031 14.3511C38.3879 15.1657 38.2035 16.0499 37.3695 16.7498C36.8683 17.1705 36.3587 17.3516 35.7779 17.308L35.7 16.5411C36.1408 16.5847 36.5741 16.4455 36.9111 16.1622C37.336 15.8052 37.4684 15.3476 37.0561 14.8573L36.7879 14.538C36.922 14.9973 36.8021 15.4172 36.3772 15.7734C35.6757 16.3626 34.778 16.2259 34.1067 15.4272C33.4395 14.6335 33.4622 13.7283 34.1637 13.1391C34.5936 12.7779 35.0211 12.7242 35.4477 12.9329L35.0672 12.4695H35.0697ZM36.0679 13.7811C35.7159 13.3621 35.2248 13.2967 34.8342 13.6252C34.4487 13.9488 34.4587 14.4047 34.8174 14.8313C35.1829 15.2663 35.6371 15.3618 36.0218 15.0383C36.4124 14.7106 36.4266 14.2077 36.0679 13.7803V13.7811Z" fill="white"/>
<path d="M15.3428 29.2234L12.9584 30.7932C13.3632 31.2475 13.8116 31.3305 14.2541 31.0388C14.6765 30.7605 14.8148 30.4429 14.6941 30.0682L15.57 29.6676C15.9027 30.5175 15.5691 31.2818 14.767 31.8099C13.6733 32.5298 12.546 32.2038 11.8537 31.1519C11.1748 30.1219 11.329 28.9158 12.37 28.2302C13.3866 27.5614 14.4544 27.8355 15.1559 28.9016C15.2188 28.9963 15.2775 29.0935 15.342 29.2226L15.3428 29.2234ZM12.5745 30.1948L14.0412 29.2293C13.6942 28.7867 13.2676 28.7356 12.8737 28.9946C12.4689 29.2611 12.3549 29.6844 12.5753 30.1948H12.5745Z" fill="white"/>
<path d="M51.3111 4.5415C50.3967 3.43433 49.4714 2.32465 48.3868 1.38427C44.5583 4.746 40.8496 7.84205 37.3034 10.6791L35.6481 11.9698L35.0304 12.4878L37.5473 15.4062L37.875 16.1881L43.2366 11.358C45.875 9.21742 48.5746 6.94525 51.3102 4.5415H51.3111Z" fill="white"/>
<path d="M13.265 31.7865L12.0162 30.826L12.1126 29.0249L12.0464 28.4902C11.986 28.5329 11.9265 28.5765 11.8662 28.6192C11.7137 28.729 11.5611 28.8388 11.4086 28.9478C11.2041 29.0945 11.0004 29.2411 10.7959 29.3878C10.5805 29.5429 10.3659 29.6971 10.1505 29.8521C9.96532 29.9854 9.78009 30.1187 9.59487 30.2519C9.48004 30.3349 9.36438 30.4162 9.2504 30.5C9.0593 30.6391 8.84642 30.7523 8.64443 30.8746C8.44244 30.997 8.23291 31.1227 8.02673 31.2468C7.63784 31.4806 7.24727 31.7128 6.8567 31.9433C6.49715 32.1553 6.13675 32.3665 5.77552 32.5769C5.44614 32.768 5.11591 32.9582 4.78569 33.1476C4.48732 33.3178 4.18894 33.4879 3.88889 33.6564C3.62237 33.8064 3.35585 33.9556 3.08848 34.1031C2.85548 34.2322 2.62165 34.3613 2.38697 34.4887C2.36518 34.5004 2.16654 34.5926 2.16822 34.6077L2.56717 38.6877C4.23839 37.7825 7.52134 36.2613 11.1228 34.1509L11.127 34.1484C11.2946 34.0503 11.4631 33.9506 11.6315 33.85L14.7778 31.805L13.2642 31.7865H13.265Z" fill="white"/>
</svg>
