<svg width="107" height="134" viewBox="0 0 107 134" fill="none" xmlns="http://www.w3.org/2000/svg">
<g filter="url(#filter0_d_1_34)">
<path d="M11.1841 6.01423C16.676 5.60853 19.8975 7.1396 22.9575 9.00364C34.5913 16.0748 46.5364 22.599 58.3348 29.383C70.222 36.2133 82.1441 42.9755 94.0605 49.7513C95.809 50.7471 97.448 51.8752 98.8827 53.2867C104.961 59.2639 103.003 68.4957 94.9567 71.3044C89.342 73.2686 83.6366 74.9698 77.9725 76.793C76.3747 77.3106 76.362 77.318 77.294 78.6986C82.7457 86.7682 88.179 94.8589 93.6879 102.898C95.3579 105.331 96.4073 107.84 95.7508 110.828C95.2691 113.009 94.1321 114.762 92.2496 116.022C86.3316 119.984 80.4289 123.978 74.5099 127.927C70.4486 130.638 65.4317 129.815 62.6013 125.84C59.6907 121.752 56.9563 117.547 54.1526 113.387C51.1581 108.943 48.1383 104.515 45.1879 100.043C44.5033 98.9995 44.1296 99.0254 43.3453 99.9728C39.6259 104.486 35.8508 108.957 32.0547 113.409C26.3385 120.103 17.0842 118.68 13.5441 110.629C12.3017 107.805 12.0602 104.788 11.6506 101.814C10.2966 92.0364 9.06014 82.2437 7.75156 72.456C6.54916 63.4425 5.30088 54.4322 4.11159 45.4178C3.03842 37.5119 1.57371 29.6593 1.03019 21.6972C0.787224 18.1804 1.45684 14.8108 3.33359 11.7518C5.53048 8.17818 8.71444 6.21114 11.1841 6.01423Z" fill="#7C54F7"/>
</g>
<defs>
<filter id="filter0_d_1_34" x="-3.02086" y="5.94857" width="109.468" height="131.567" filterUnits="userSpaceOnUse" color-interpolation-filters="sRGB">
<feFlood flood-opacity="0" result="BackgroundImageFix"/>
<feColorMatrix in="SourceAlpha" type="matrix" values="0 0 0 0 0 0 0 0 0 0 0 0 0 0 0 0 0 0 127 0" result="hardAlpha"/>
<feOffset dy="4"/>
<feGaussianBlur stdDeviation="2"/>
<feComposite in2="hardAlpha" operator="out"/>
<feColorMatrix type="matrix" values="0 0 0 0 0 0 0 0 0 0 0 0 0 0 0 0 0 0 0.25 0"/>
<feBlend mode="normal" in2="BackgroundImageFix" result="effect1_dropShadow_1_34"/>
<feBlend mode="normal" in="SourceGraphic" in2="effect1_dropShadow_1_34" result="shape"/>
</filter>
</defs>
</svg>
