<svg width="29" height="55" viewBox="0 0 29 55" fill="none" xmlns="http://www.w3.org/2000/svg">
<path d="M0.779325 4.63721C0.530384 4.37482 0.335768 4.06616 0.206589 3.72886C0.0774078 3.39155 0.0161934 3.0322 0.0264435 2.67134C0.0366917 2.31047 0.118204 1.95514 0.266321 1.62565C0.414438 1.29616 0.626263 0.998949 0.889698 0.750994C1.15314 0.50304 1.46303 0.309196 1.80168 0.180528C2.14033 0.0518612 2.5011 -0.0091091 2.86341 0.00109936C3.22572 0.0113078 3.58246 0.0924947 3.91326 0.240025C4.24407 0.387555 4.54246 0.598538 4.7914 0.86093L28.2458 25.5964C28.7301 26.1067 29 26.7823 29 27.4846C29 28.1868 28.7301 28.8624 28.2458 29.3727L4.7914 54.1109C4.5441 54.3791 4.24578 54.5956 3.91375 54.7479C3.58173 54.9002 3.22263 54.9853 2.85731 54.9983C2.49199 55.0112 2.12773 54.9517 1.78569 54.8232C1.44366 54.6947 1.13065 54.4999 0.864874 54.2499C0.599092 53.9999 0.385828 53.6998 0.237469 53.3671C0.0891094 53.0343 0.00861359 52.6755 0.000654221 52.3115C-0.00730515 51.9474 0.0574303 51.5855 0.191105 51.2466C0.324778 50.9077 0.524723 50.5987 0.779325 50.3374L22.4456 27.4846L0.779325 4.63721Z" fill="white"/>
</svg>
